# xmcd
#
# Track frame offsets: 
#        150
#        2366
#        94794
#        144732
#        196686
#        222175
#        245713
#        267017
#        290513
#
# Disc length: 4226 seconds
#
# Revision: 0
# Processed by: cddbd v1.5.2PL0 Copyright (c) Steve Scherf et al.
# Submitted via: ExactAudioCopy v0.95b3
#
DISCID=7b108009
DTITLE=Jimi Hendrix  - 3 Nights At Winterland 6 Cd Box Set - Disc 4 (2
DTITLE=006)
DYEAR=1900
DGENRE=
TTITLE0=Intro
TTITLE1=Tax Free\\Drum& Bass
TTITLE2=Spanish Castle Magic
TTITLE3=Like A Rolling Stone
TTITLE4=Lover Man
TTITLE5=Hey Joe
TTITLE6=Fire
TTITLE7=Foxy Lady
TTITLE8=Purple Haze
EXTD=
EXTT0=
EXTT1=
EXTT2=
EXTT3=
EXTT4=
EXTT5=
EXTT6=
EXTT7=
EXTT8=
PLAYORDER=
